# xmcd CD database file
#
# Track frame offsets:
#	150
#	7116
#	15587
#	21920
#	33324
#	39085
#	47891
#	54593
#	64327
#	76950
#	85324
#	97724
#
# Disc length: 1358 seconds
#
# Revision: 0
# Processed by: cddbd v1.4PL0 Copyright (c) Steve Scherf et al.
# Submitted via: CDex 1.40Release
#
DISCID=89054c0c
DTITLE=Rompecabeza - BallPeen Companion
DYEAR=1994
DGENRE=Native American
TTITLE0=Affluent Crackhouse
TTITLE1=Extra Special Bitter
TTITLE2=Gray Building
TTITLE3=Top Fermented
TTITLE4=Bam Bam Bhole
TTITLE5=Beautiful Head of Bald Callings
TTITLE6=Herpes IN Common
TTITLE7=Fool-eyed
TTITLE8=Hot Rollin Brudder
TTITLE9=Subhuman Something
TTITLE10=Tale of Captian Baidal
TTITLE11=Lemmy Caution Gets the Girl
EXTD=YEAR: 1994 ID3G: 64
EXTT0=
EXTT1=
EXTT2=
EXTT3=
EXTT4=
EXTT5=
EXTT6=
EXTT7=
EXTT8=
EXTT9=
EXTT10=
EXTT11=
PLAYORDER=
